<mxfile host="app.diagrams.net" modified="2024-05-04T00:30:21.013Z" agent="Mozilla/5.0 (X11; Linux x86_64) AppleWebKit/537.36 (KHTML, like Gecko) Chrome/122.0.0.0 Safari/537.36" etag="OBXdMZ7Nflu-_HATveGt" version="24.2.5" type="device">
  <diagram name="Página-1" id="aGkGRH3_7rqdDCwRKDh6">
    <mxGraphModel dx="1434" dy="776" grid="1" gridSize="10" guides="1" tooltips="1" connect="1" arrows="1" fold="1" page="1" pageScale="1" pageWidth="827" pageHeight="1169" math="0" shadow="0">
      <root>
        <mxCell id="0" />
        <mxCell id="1" parent="0" />
        <mxCell id="-YjWqrStn4GmIgA3x7Md-9" style="edgeStyle=orthogonalEdgeStyle;rounded=0;orthogonalLoop=1;jettySize=auto;html=1;exitX=0.75;exitY=1;exitDx=0;exitDy=0;" edge="1" parent="1" source="-YjWqrStn4GmIgA3x7Md-1" target="-YjWqrStn4GmIgA3x7Md-7">
          <mxGeometry relative="1" as="geometry" />
        </mxCell>
        <mxCell id="-YjWqrStn4GmIgA3x7Md-1" value="Función" style="whiteSpace=wrap;html=1;align=center;" vertex="1" parent="1">
          <mxGeometry x="360" y="380" width="100" height="40" as="geometry" />
        </mxCell>
        <mxCell id="-YjWqrStn4GmIgA3x7Md-4" value="" style="edgeStyle=orthogonalEdgeStyle;rounded=0;orthogonalLoop=1;jettySize=auto;html=1;" edge="1" parent="1" source="-YjWqrStn4GmIgA3x7Md-2" target="-YjWqrStn4GmIgA3x7Md-3">
          <mxGeometry relative="1" as="geometry" />
        </mxCell>
        <mxCell id="-YjWqrStn4GmIgA3x7Md-2" value="Asistente Virtual" style="whiteSpace=wrap;html=1;align=center;" vertex="1" parent="1">
          <mxGeometry x="570" y="240" width="100" height="40" as="geometry" />
        </mxCell>
        <mxCell id="-YjWqrStn4GmIgA3x7Md-5" value="" style="edgeStyle=orthogonalEdgeStyle;rounded=0;orthogonalLoop=1;jettySize=auto;html=1;" edge="1" parent="1" source="-YjWqrStn4GmIgA3x7Md-3" target="-YjWqrStn4GmIgA3x7Md-1">
          <mxGeometry relative="1" as="geometry" />
        </mxCell>
        <mxCell id="-YjWqrStn4GmIgA3x7Md-3" value="Cumple" style="shape=rhombus;perimeter=rhombusPerimeter;whiteSpace=wrap;html=1;align=center;" vertex="1" parent="1">
          <mxGeometry x="560" y="370" width="120" height="60" as="geometry" />
        </mxCell>
        <mxCell id="-YjWqrStn4GmIgA3x7Md-11" style="edgeStyle=orthogonalEdgeStyle;rounded=0;orthogonalLoop=1;jettySize=auto;html=1;exitX=0.5;exitY=1;exitDx=0;exitDy=0;" edge="1" parent="1" source="-YjWqrStn4GmIgA3x7Md-6" target="-YjWqrStn4GmIgA3x7Md-10">
          <mxGeometry relative="1" as="geometry" />
        </mxCell>
        <mxCell id="-YjWqrStn4GmIgA3x7Md-6" value="Añade" style="shape=rhombus;perimeter=rhombusPerimeter;whiteSpace=wrap;html=1;align=center;" vertex="1" parent="1">
          <mxGeometry x="220" y="510" width="120" height="60" as="geometry" />
        </mxCell>
        <mxCell id="-YjWqrStn4GmIgA3x7Md-13" style="edgeStyle=orthogonalEdgeStyle;rounded=0;orthogonalLoop=1;jettySize=auto;html=1;exitX=0.5;exitY=1;exitDx=0;exitDy=0;" edge="1" parent="1" source="-YjWqrStn4GmIgA3x7Md-7" target="-YjWqrStn4GmIgA3x7Md-12">
          <mxGeometry relative="1" as="geometry" />
        </mxCell>
        <mxCell id="-YjWqrStn4GmIgA3x7Md-7" value="Agrega" style="shape=rhombus;perimeter=rhombusPerimeter;whiteSpace=wrap;html=1;align=center;" vertex="1" parent="1">
          <mxGeometry x="430" y="510" width="120" height="60" as="geometry" />
        </mxCell>
        <mxCell id="-YjWqrStn4GmIgA3x7Md-8" style="edgeStyle=orthogonalEdgeStyle;rounded=0;orthogonalLoop=1;jettySize=auto;html=1;exitX=0;exitY=0.5;exitDx=0;exitDy=0;entryX=0.417;entryY=0;entryDx=0;entryDy=0;entryPerimeter=0;" edge="1" parent="1" source="-YjWqrStn4GmIgA3x7Md-1" target="-YjWqrStn4GmIgA3x7Md-6">
          <mxGeometry relative="1" as="geometry" />
        </mxCell>
        <mxCell id="-YjWqrStn4GmIgA3x7Md-10" value="Alarma" style="whiteSpace=wrap;html=1;align=center;" vertex="1" parent="1">
          <mxGeometry x="120" y="640" width="100" height="40" as="geometry" />
        </mxCell>
        <mxCell id="-YjWqrStn4GmIgA3x7Md-12" value="Recordatorio" style="whiteSpace=wrap;html=1;align=center;" vertex="1" parent="1">
          <mxGeometry x="440" y="650" width="100" height="40" as="geometry" />
        </mxCell>
        <mxCell id="-YjWqrStn4GmIgA3x7Md-14" value="Hora" style="ellipse;whiteSpace=wrap;html=1;align=center;" vertex="1" parent="1">
          <mxGeometry x="220" y="720" width="100" height="40" as="geometry" />
        </mxCell>
        <mxCell id="-YjWqrStn4GmIgA3x7Md-15" value="Día" style="ellipse;whiteSpace=wrap;html=1;align=center;" vertex="1" parent="1">
          <mxGeometry x="220" y="780" width="100" height="40" as="geometry" />
        </mxCell>
        <mxCell id="-YjWqrStn4GmIgA3x7Md-16" value="Sonido" style="ellipse;whiteSpace=wrap;html=1;align=center;" vertex="1" parent="1">
          <mxGeometry x="220" y="830" width="100" height="40" as="geometry" />
        </mxCell>
        <mxCell id="-YjWqrStn4GmIgA3x7Md-26" value="" style="endArrow=none;html=1;rounded=0;" edge="1" parent="1">
          <mxGeometry width="50" height="50" relative="1" as="geometry">
            <mxPoint x="219.99501372996227" y="850.004600107319" as="sourcePoint" />
            <mxPoint x="146.97142857142856" y="679.72" as="targetPoint" />
          </mxGeometry>
        </mxCell>
        <mxCell id="-YjWqrStn4GmIgA3x7Md-30" value="Día" style="ellipse;whiteSpace=wrap;html=1;align=center;" vertex="1" parent="1">
          <mxGeometry x="570" y="700" width="100" height="40" as="geometry" />
        </mxCell>
        <mxCell id="-YjWqrStn4GmIgA3x7Md-31" value="Mes" style="ellipse;whiteSpace=wrap;html=1;align=center;" vertex="1" parent="1">
          <mxGeometry x="570" y="750" width="100" height="40" as="geometry" />
        </mxCell>
        <mxCell id="-YjWqrStn4GmIgA3x7Md-32" value="Año" style="ellipse;whiteSpace=wrap;html=1;align=center;" vertex="1" parent="1">
          <mxGeometry x="570" y="800" width="100" height="40" as="geometry" />
        </mxCell>
        <mxCell id="-YjWqrStn4GmIgA3x7Md-33" value="Descripción" style="ellipse;whiteSpace=wrap;html=1;align=center;" vertex="1" parent="1">
          <mxGeometry x="570" y="850" width="100" height="40" as="geometry" />
        </mxCell>
        <mxCell id="-YjWqrStn4GmIgA3x7Md-34" value="Hora recordatorio" style="ellipse;whiteSpace=wrap;html=1;align=center;" vertex="1" parent="1">
          <mxGeometry x="570" y="900" width="100" height="40" as="geometry" />
        </mxCell>
        <mxCell id="-YjWqrStn4GmIgA3x7Md-35" value="" style="endArrow=none;html=1;rounded=0;exitX=0;exitY=0.5;exitDx=0;exitDy=0;entryX=0.81;entryY=0.975;entryDx=0;entryDy=0;entryPerimeter=0;" edge="1" parent="1" source="-YjWqrStn4GmIgA3x7Md-30" target="-YjWqrStn4GmIgA3x7Md-12">
          <mxGeometry width="50" height="50" relative="1" as="geometry">
            <mxPoint x="480" y="740" as="sourcePoint" />
            <mxPoint x="530" y="690" as="targetPoint" />
          </mxGeometry>
        </mxCell>
        <mxCell id="-YjWqrStn4GmIgA3x7Md-36" value="" style="endArrow=none;html=1;rounded=0;exitX=0;exitY=0.5;exitDx=0;exitDy=0;" edge="1" parent="1" source="-YjWqrStn4GmIgA3x7Md-31">
          <mxGeometry width="50" height="50" relative="1" as="geometry">
            <mxPoint x="540" y="720" as="sourcePoint" />
            <mxPoint x="500" y="690" as="targetPoint" />
          </mxGeometry>
        </mxCell>
        <mxCell id="-YjWqrStn4GmIgA3x7Md-37" value="" style="endArrow=none;html=1;rounded=0;exitX=0;exitY=0.5;exitDx=0;exitDy=0;" edge="1" parent="1" source="-YjWqrStn4GmIgA3x7Md-32">
          <mxGeometry width="50" height="50" relative="1" as="geometry">
            <mxPoint x="550" y="770" as="sourcePoint" />
            <mxPoint x="480" y="690" as="targetPoint" />
          </mxGeometry>
        </mxCell>
        <mxCell id="-YjWqrStn4GmIgA3x7Md-38" value="" style="endArrow=none;html=1;rounded=0;exitX=0;exitY=0.5;exitDx=0;exitDy=0;" edge="1" parent="1" source="-YjWqrStn4GmIgA3x7Md-33">
          <mxGeometry width="50" height="50" relative="1" as="geometry">
            <mxPoint x="550" y="820" as="sourcePoint" />
            <mxPoint x="460" y="690" as="targetPoint" />
          </mxGeometry>
        </mxCell>
        <mxCell id="-YjWqrStn4GmIgA3x7Md-39" value="" style="endArrow=none;html=1;rounded=0;exitX=-0.035;exitY=0.413;exitDx=0;exitDy=0;exitPerimeter=0;" edge="1" parent="1" source="-YjWqrStn4GmIgA3x7Md-34">
          <mxGeometry width="50" height="50" relative="1" as="geometry">
            <mxPoint x="550" y="870" as="sourcePoint" />
            <mxPoint x="440" y="690" as="targetPoint" />
          </mxGeometry>
        </mxCell>
        <mxCell id="-YjWqrStn4GmIgA3x7Md-40" value="" style="endArrow=none;html=1;rounded=0;entryX=0.775;entryY=1.088;entryDx=0;entryDy=0;entryPerimeter=0;exitX=0;exitY=0.5;exitDx=0;exitDy=0;" edge="1" parent="1" source="-YjWqrStn4GmIgA3x7Md-15">
          <mxGeometry width="50" height="50" relative="1" as="geometry">
            <mxPoint x="242" y="716" as="sourcePoint" />
            <mxPoint x="170" y="680" as="targetPoint" />
          </mxGeometry>
        </mxCell>
        <mxCell id="-YjWqrStn4GmIgA3x7Md-41" value="" style="endArrow=none;html=1;rounded=0;entryX=0.775;entryY=1.088;entryDx=0;entryDy=0;entryPerimeter=0;exitX=0;exitY=0.5;exitDx=0;exitDy=0;" edge="1" parent="1" source="-YjWqrStn4GmIgA3x7Md-14">
          <mxGeometry width="50" height="50" relative="1" as="geometry">
            <mxPoint x="240" y="800" as="sourcePoint" />
            <mxPoint x="190" y="680" as="targetPoint" />
          </mxGeometry>
        </mxCell>
        <mxCell id="-YjWqrStn4GmIgA3x7Md-42" value="Juegos" style="whiteSpace=wrap;html=1;align=center;" vertex="1" parent="1">
          <mxGeometry x="820" y="420" width="100" height="40" as="geometry" />
        </mxCell>
        <mxCell id="-YjWqrStn4GmIgA3x7Md-47" value="1" style="ellipse;whiteSpace=wrap;html=1;align=center;" vertex="1" parent="1">
          <mxGeometry x="913.5" y="510" width="100" height="40" as="geometry" />
        </mxCell>
        <mxCell id="-YjWqrStn4GmIgA3x7Md-48" value="2" style="ellipse;whiteSpace=wrap;html=1;align=center;" vertex="1" parent="1">
          <mxGeometry x="913.5" y="580" width="100" height="40" as="geometry" />
        </mxCell>
        <mxCell id="-YjWqrStn4GmIgA3x7Md-49" value="3" style="ellipse;whiteSpace=wrap;html=1;align=center;" vertex="1" parent="1">
          <mxGeometry x="913.5" y="650" width="100" height="40" as="geometry" />
        </mxCell>
        <mxCell id="-YjWqrStn4GmIgA3x7Md-50" value="" style="endArrow=none;html=1;rounded=0;exitX=-0.005;exitY=0.4;exitDx=0;exitDy=0;exitPerimeter=0;" edge="1" parent="1" source="-YjWqrStn4GmIgA3x7Md-47">
          <mxGeometry width="50" height="50" relative="1" as="geometry">
            <mxPoint x="838.5" y="510" as="sourcePoint" />
            <mxPoint x="888.5" y="460" as="targetPoint" />
          </mxGeometry>
        </mxCell>
        <mxCell id="-YjWqrStn4GmIgA3x7Md-51" value="" style="endArrow=none;html=1;rounded=0;exitX=-0.03;exitY=0.438;exitDx=0;exitDy=0;exitPerimeter=0;entryX=0.5;entryY=1;entryDx=0;entryDy=0;" edge="1" parent="1" source="-YjWqrStn4GmIgA3x7Md-48">
          <mxGeometry width="50" height="50" relative="1" as="geometry">
            <mxPoint x="888.5" y="530" as="sourcePoint" />
            <mxPoint x="863.5" y="460" as="targetPoint" />
          </mxGeometry>
        </mxCell>
        <mxCell id="-YjWqrStn4GmIgA3x7Md-52" value="" style="endArrow=none;html=1;rounded=0;exitX=0;exitY=0.5;exitDx=0;exitDy=0;" edge="1" parent="1" source="-YjWqrStn4GmIgA3x7Md-49">
          <mxGeometry width="50" height="50" relative="1" as="geometry">
            <mxPoint x="887" y="594" as="sourcePoint" />
            <mxPoint x="840" y="460" as="targetPoint" />
          </mxGeometry>
        </mxCell>
        <mxCell id="-YjWqrStn4GmIgA3x7Md-53" value="Integer" style="text;html=1;align=center;verticalAlign=middle;whiteSpace=wrap;rounded=0;" vertex="1" parent="1">
          <mxGeometry x="320" y="725" width="60" height="30" as="geometry" />
        </mxCell>
        <mxCell id="-YjWqrStn4GmIgA3x7Md-54" value="Integer" style="text;html=1;align=center;verticalAlign=middle;whiteSpace=wrap;rounded=0;" vertex="1" parent="1">
          <mxGeometry x="670" y="905" width="60" height="30" as="geometry" />
        </mxCell>
        <mxCell id="-YjWqrStn4GmIgA3x7Md-55" value="Integer" style="text;html=1;align=center;verticalAlign=middle;whiteSpace=wrap;rounded=0;" vertex="1" parent="1">
          <mxGeometry x="1013.5" y="515" width="60" height="30" as="geometry" />
        </mxCell>
        <mxCell id="-YjWqrStn4GmIgA3x7Md-56" value="Integer" style="text;html=1;align=center;verticalAlign=middle;whiteSpace=wrap;rounded=0;" vertex="1" parent="1">
          <mxGeometry x="1013.5" y="585" width="60" height="30" as="geometry" />
        </mxCell>
        <mxCell id="-YjWqrStn4GmIgA3x7Md-57" value="Integer" style="text;html=1;align=center;verticalAlign=middle;whiteSpace=wrap;rounded=0;" vertex="1" parent="1">
          <mxGeometry x="1013.5" y="655" width="60" height="30" as="geometry" />
        </mxCell>
        <mxCell id="-YjWqrStn4GmIgA3x7Md-58" value="Date" style="text;html=1;align=center;verticalAlign=middle;whiteSpace=wrap;rounded=0;" vertex="1" parent="1">
          <mxGeometry x="320" y="785" width="60" height="30" as="geometry" />
        </mxCell>
        <mxCell id="-YjWqrStn4GmIgA3x7Md-59" value="Varchar" style="text;html=1;align=center;verticalAlign=middle;whiteSpace=wrap;rounded=0;" vertex="1" parent="1">
          <mxGeometry x="320" y="835" width="60" height="30" as="geometry" />
        </mxCell>
        <mxCell id="-YjWqrStn4GmIgA3x7Md-60" value="Varchar" style="text;html=1;align=center;verticalAlign=middle;whiteSpace=wrap;rounded=0;" vertex="1" parent="1">
          <mxGeometry x="670" y="705" width="60" height="30" as="geometry" />
        </mxCell>
        <mxCell id="-YjWqrStn4GmIgA3x7Md-61" value="Varchar" style="text;html=1;align=center;verticalAlign=middle;whiteSpace=wrap;rounded=0;" vertex="1" parent="1">
          <mxGeometry x="670" y="755" width="60" height="30" as="geometry" />
        </mxCell>
        <mxCell id="-YjWqrStn4GmIgA3x7Md-62" value="Varchar" style="text;html=1;align=center;verticalAlign=middle;whiteSpace=wrap;rounded=0;" vertex="1" parent="1">
          <mxGeometry x="670" y="805" width="60" height="30" as="geometry" />
        </mxCell>
        <mxCell id="-YjWqrStn4GmIgA3x7Md-63" value="Text" style="text;html=1;align=center;verticalAlign=middle;whiteSpace=wrap;rounded=0;" vertex="1" parent="1">
          <mxGeometry x="670" y="855" width="60" height="30" as="geometry" />
        </mxCell>
        <mxCell id="-YjWqrStn4GmIgA3x7Md-64" value="1:1" style="text;html=1;align=center;verticalAlign=middle;whiteSpace=wrap;rounded=0;" vertex="1" parent="1">
          <mxGeometry x="100" y="600" width="60" height="30" as="geometry" />
        </mxCell>
        <mxCell id="-YjWqrStn4GmIgA3x7Md-65" value="1:1" style="text;html=1;align=center;verticalAlign=middle;whiteSpace=wrap;rounded=0;" vertex="1" parent="1">
          <mxGeometry x="510" y="610" width="60" height="30" as="geometry" />
        </mxCell>
        <mxCell id="-YjWqrStn4GmIgA3x7Md-66" value="1:M" style="text;html=1;align=center;verticalAlign=middle;whiteSpace=wrap;rounded=0;" vertex="1" parent="1">
          <mxGeometry x="270" y="370" width="60" height="30" as="geometry" />
        </mxCell>
        <mxCell id="-YjWqrStn4GmIgA3x7Md-67" value="1:M" style="text;html=1;align=center;verticalAlign=middle;whiteSpace=wrap;rounded=0;" vertex="1" parent="1">
          <mxGeometry x="384" y="425" width="60" height="30" as="geometry" />
        </mxCell>
        <mxCell id="-YjWqrStn4GmIgA3x7Md-68" value="M:1" style="text;html=1;align=center;verticalAlign=middle;whiteSpace=wrap;rounded=0;" vertex="1" parent="1">
          <mxGeometry x="480" y="370" width="60" height="30" as="geometry" />
        </mxCell>
        <mxCell id="-YjWqrStn4GmIgA3x7Md-69" value="1:M" style="text;html=1;align=center;verticalAlign=middle;whiteSpace=wrap;rounded=0;" vertex="1" parent="1">
          <mxGeometry x="620" y="290" width="60" height="30" as="geometry" />
        </mxCell>
      </root>
    </mxGraphModel>
  </diagram>
</mxfile>
